<?xml version="1.0" encoding="iso-8859-1"?>
<!-- Generator: Adobe Illustrator 19.0.0, SVG Export Plug-In . SVG Version: 6.00 Build 0)  -->
<svg version="1.1" id="Capa_1" xmlns="http://www.w3.org/2000/svg" xmlns:xlink="http://www.w3.org/1999/xlink" x="0px" y="0px"
	 viewBox="0 0 511.999 511.999" style="enable-background:new 0 0 511.999 511.999;" xml:space="preserve">
<g>
	<g>
		<path d="M472.805,39.337c-0.13-0.13-0.265-0.253-0.395-0.383c-0.013-0.013-0.026-0.026-0.04-0.039
			c-66.055-65.44-186.952-45.709-273.104,40.444c-12.857,12.857-24.459,26.718-34.62,41.29
			c-51.43-7.624-96.697,5.183-127.787,36.274c-0.122,0.122-0.237,0.249-0.358,0.372c-0.024,0.025-0.049,0.049-0.072,0.075
			c-62.303,63.006-42.541,189.901,42.852,275.293c86.464,86.465,213.525,104.636,275.739,42.422
			c0.076-0.076,0.149-0.156,0.225-0.233c0.04-0.042,0.081-0.082,0.12-0.124c30.836-31.079,43.525-76.195,35.93-127.431
			c14.571-10.161,28.433-21.762,41.29-34.62C519.185,226.076,538.564,105.096,472.805,39.337z M220.477,100.57
			c66.71-66.71,154.506-87.823,210.424-55.815l-0.678,0.231c-33.296,11.336-62.772,30.906-85.239,56.597
			c-21.362,24.426-36.398,54.42-43.701,87.005c-31.617-28.622-67.749-49.527-104.761-60.744
			C203.828,118.333,211.839,109.207,220.477,100.57z M100.491,411.452c-62.885-62.885-87.809-154.38-57.961-211.882
			c23.047,67.626,80.893,118.26,150.978,132.15c60.365,11.964,109.799,55.713,129.012,114.177l4.589,13.966
			C274.121,502.374,171.098,482.06,100.491,411.452z M349.698,432.738c-23.455-66.823-80.706-116.638-150.36-130.443
			c-59.631-11.819-108.844-54.909-128.436-112.456l-6.07-17.83c55.066-45.286,154.864-23.144,226.554,48.546
			c34.7,34.7,61.704,79.711,69.737,127.91C366.497,380.715,362.439,409.762,349.698,432.738z M384.098,315.421
			c-10.842-35.776-30.74-70.726-57.905-101.575c1.316-4.768,2.481-9.591,3.44-14.427c11.954-60.313,52.14-106.252,110.256-126.037
			l17.846-6.075c45.14,54.503,25.904,151.894-46.363,224.161C402.735,300.103,393.608,308.115,384.098,315.421z"/>
	</g>
</g>
<g>
</g>
<g>
</g>
<g>
</g>
<g>
</g>
<g>
</g>
<g>
</g>
<g>
</g>
<g>
</g>
<g>
</g>
<g>
</g>
<g>
</g>
<g>
</g>
<g>
</g>
<g>
</g>
<g>
</g>
</svg>
