<svg height="512pt" viewBox="-46 0 512 512" width="512pt" xmlns="http://www.w3.org/2000/svg"><path d="m409.097656 32.191406c-50.800781-14.515625-121.515625-27.632812-218.226562 0-75.160156 21.472656-132.21875 13.859375-160.871094 8.292969v-25.484375c0-8.285156-6.71875-15-15-15-8.285156 0-15 6.714844-15 15v482c0 8.285156 6.714844 15 15 15 8.28125 0 15-6.714844 15-15v-154.722656c14.101562 2.371094 33.550781 4.71875 57.519531 4.71875 30.488281 0 68.269531-3.796875 111.589844-16.175782 92.636719-26.464843 159.507813-13.484374 201.75-1.414062 4.523437 1.292969 9.394531.386719 13.152344-2.449219 3.757812-2.832031 5.964843-7.269531 5.964843-11.972656v-268.371094c0-6.699219-4.4375-12.582031-10.878906-14.421875zm-19.117187 263.335938c-45.875-10.976563-112.035157-18.429688-199.113281 6.449218-75.667969 21.621094-132.804688 14.996094-160.867188 9.835938v-240.804688c32.5625 5.847657 92.105469 12.027344 169.109375-9.972656 82.703125-23.628906 144.84375-15.027344 190.871094-2.984375zm0 0"/></svg>