<?xml version="1.0" encoding="iso-8859-1"?>
<!-- Generator: Adobe Illustrator 19.0.0, SVG Export Plug-In . SVG Version: 6.00 Build 0)  -->
<svg version="1.1" id="Layer_1" xmlns="http://www.w3.org/2000/svg" xmlns:xlink="http://www.w3.org/1999/xlink" x="0px" y="0px"
	 viewBox="0 0 512 512" style="enable-background:new 0 0 512 512;" xml:space="preserve">
<g>
	<g>
		<path d="M362.425,328.348c2.846-35.187,14.211-66.844,26.157-100.095c14.165-39.424,28.81-80.19,28.81-128.079V83.478H83.478
			C37.448,83.478,0,120.927,0,166.957s37.448,83.478,83.478,83.478h47.797c8.757,25.441,16.091,50.616,18.3,77.913H0v33.391h32.544
			l22.586,66.783h402.285l22.122-66.783H512v-33.391H362.425z M83.478,217.043c-27.618,0-50.087-22.469-50.087-50.087
			c0-27.618,22.469-50.087,50.087-50.087h11.726c2.561,36.441,13.084,68.894,24.201,100.174H83.478z M128.679,116.87h254.642
			c-2.845,35.188-14.217,66.842-26.163,100.095c-12.489,34.761-25.346,70.571-28.215,111.383H183.057
			c-2.868-40.812-15.725-76.622-28.215-111.383C142.897,183.711,131.524,152.058,128.679,116.87z M433.299,395.13H79.086
			l-11.293-33.391H444.36L433.299,395.13z"/>
	</g>
</g>
<g>
</g>
<g>
</g>
<g>
</g>
<g>
</g>
<g>
</g>
<g>
</g>
<g>
</g>
<g>
</g>
<g>
</g>
<g>
</g>
<g>
</g>
<g>
</g>
<g>
</g>
<g>
</g>
<g>
</g>
</svg>
