<svg height="480pt" viewBox="-48 0 480 480" width="480pt" xmlns="http://www.w3.org/2000/svg"><path d="m360 224h-128c-13.25.015625-23.984375 10.75-24 24v8h-23.226562l-33.867188-6.773438c-2.980469-10.183593-12.300781-17.191406-22.90625-17.226562h-128v16h128c4.417969.003906 7.996094 3.582031 8 8v48c-.003906 4.417969-3.582031 7.996094-8 8h-128v16h128c10.605469-.035156 19.925781-7.042969 22.90625-17.226562l33.867188-6.773438h23.226562v16c.015625 13.25 10.75 23.984375 24 24h128c13.25-.015625 23.984375-10.75 24-24v-72c-.015625-13.25-10.75-23.984375-24-24zm-208 41.757812 24 4.796876v18.890624l-24 4.796876zm40 22.242188v-16h16v16zm176 32c-.003906 4.417969-3.582031 7.996094-8 8h-128c-4.417969-.003906-7.996094-3.582031-8-8v-48h144zm-144-64v-8c.003906-4.417969 3.582031-7.996094 8-8h128c4.417969.003906 7.996094 3.582031 8 8v8zm0 0"/><path d="m232 208h128c8.832031-.011719 15.988281-7.167969 16-16v-32c-.011719-8.832031-7.167969-15.988281-16-16h-4.300781l-21.972657-25.851562c-1.878906-3.148438-1.382812-7.167969 1.203126-9.765626l4.414062-4.414062c8.128906-8.085938 12.6875-19.089844 12.65625-30.554688v-17.414062c0-30.929688-25.070312-56-56-56s-56 25.070312-56 56v17.414062c-.03125 11.464844 4.527344 22.46875 12.65625 30.554688l4.414062 4.414062c2.585938 2.597657 3.082032 6.617188 1.203126 9.765626l-21.972657 25.851562h-4.300781c-8.832031.011719-15.988281 7.167969-16 16v32c.011719 8.832031 7.167969 15.988281 16 16zm128-16h-128v-32h128zm-89.183594-63.90625.5625-.742188c6.320313-9.523437 5.070313-22.179687-2.996094-30.28125l-4.414062-4.414062c-5.117188-5.09375-7.988281-12.023438-7.96875-19.242188v-17.414062c0-22.089844 17.910156-40 40-40s40 17.910156 40 40v17.414062c.019531 7.21875-2.851562 14.148438-7.96875 19.242188l-4.414062 4.414062c-8.066407 8.101563-9.316407 20.757813-2.996094 30.28125l14.078125 16.648438h-77.398438zm0 0"/><path d="m296 361.921875-6.582031 9.53125c-5.582031 8.078125-33.417969 49.351563-33.417969 68.546875 0 22.089844 17.910156 40 40 40s40-17.910156 40-40c0-19.195312-27.835938-60.46875-33.417969-68.546875zm0 102.078125c-13.25-.015625-23.984375-10.75-24-24 0-8.734375 12.488281-31.539062 24-49.539062 11.515625 17.992187 24 40.789062 24 49.539062-.015625 13.25-10.75 23.984375-24 24zm0 0"/></svg>